HIERARCHY
ROOT Hips
{
  OFFSET 0.000 62.277 0.000
  CHANNELS 6 Xposition Yposition Zposition Zrotation Xrotation Yrotation
  JOINT LeftUpLeg
  {
    OFFSET 7.205 0.239 2.602
    CHANNELS 6 Xposition Yposition Zposition Zrotation Xrotation Yrotation
    JOINT LeftLeg
    {
      OFFSET 0.000 -29.642 0.000
      CHANNELS 6 Xposition Yposition Zposition Zrotation Xrotation Yrotation
      JOINT LeftFoot
      {
        OFFSET 0.000 -32.874 0.000
        CHANNELS 6 Xposition Yposition Zposition Zrotation Xrotation Yrotation
        End Site
        {
          OFFSET 0.000 0.000 9.083
        }
      }
    }
  }
  JOINT RightUpLeg
  {
    OFFSET -7.205 0.239 2.602
    CHANNELS 6 Xposition Yposition Zposition Zrotation Xrotation Yrotation
    JOINT RightLeg
    {
      OFFSET 0.000 -29.642 0.000
      CHANNELS 6 Xposition Yposition Zposition Zrotation Xrotation Yrotation
      JOINT RightFoot
      {
        OFFSET 0.000 -32.874 0.000
        CHANNELS 6 Xposition Yposition Zposition Zrotation Xrotation Yrotation
        End Site
        {
          OFFSET 0.000 0.000 9.083
        }
      }
    }
  }
  JOINT Spine
  {
    OFFSET 0.000 24.999 0.000
    CHANNELS 6 Xposition Yposition Zposition Zrotation Xrotation Yrotation
    JOINT Spine1
    {
      OFFSET 0.000 18.575 0.000
      CHANNELS 6 Xposition Yposition Zposition Zrotation Xrotation Yrotation
      JOINT LeftShoulder
      {
        OFFSET 1.724 -0.307 0.046
        CHANNELS 6 Xposition Yposition Zposition Zrotation Xrotation Yrotation
        JOINT LeftArm
        {
          OFFSET 15.442 0.000 0.000
          CHANNELS 6 Xposition Yposition Zposition Zrotation Xrotation Yrotation
          JOINT LeftForeArm
          {
            OFFSET 24.534 0.000 0.000
            CHANNELS 6 Xposition Yposition Zposition Zrotation Xrotation Yrotation
            JOINT LeftHand
            {
              OFFSET 18.605 0.000 0.000
              CHANNELS 6 Xposition Yposition Zposition Zrotation Xrotation Yrotation
              JOINT LeftHandThumb1
              {
                OFFSET 4.877 -1.044 3.608
                CHANNELS 6 Xposition Yposition Zposition Zrotation Xrotation Yrotation
                JOINT LeftHandThumb2
                {
                  OFFSET 2.665 0.000 0.000
                  CHANNELS 6 Xposition Yposition Zposition Zrotation Xrotation Yrotation
                  JOINT LeftHandThumb3
                  {
                    OFFSET 2.543 -0.000 0.000
                    CHANNELS 6 Xposition Yposition Zposition Zrotation Xrotation Yrotation
                    End Site
                    {
                      OFFSET 2.667 -0.000 -0.000
                    }
                  }
                }
              }
              JOINT LeftHandIndex1
              {
                OFFSET 9.232 -0.301 2.144
                CHANNELS 6 Xposition Yposition Zposition Zrotation Xrotation Yrotation
                JOINT LeftHandIndex2
                {
                  OFFSET 4.225 0.000 -0.000
                  CHANNELS 6 Xposition Yposition Zposition Zrotation Xrotation Yrotation
                  JOINT LeftHandIndex3
                  {
                    OFFSET 2.654 0.000 0.000
                    CHANNELS 6 Xposition Yposition Zposition Zrotation Xrotation Yrotation
                    End Site
                    {
                      OFFSET 1.958 -0.000 -0.000
                    }
                  }
                }
              }
              JOINT LeftHandMiddle1
              {
                OFFSET 8.920 0.000 -0.000
                CHANNELS 6 Xposition Yposition Zposition Zrotation Xrotation Yrotation
                JOINT LeftHandMiddle2
                {
                  OFFSET 4.863 -0.000 -0.000
                  CHANNELS 6 Xposition Yposition Zposition Zrotation Xrotation Yrotation
                  JOINT LeftHandMiddle3
                  {
                    OFFSET 2.765 0.000 0.000
                    CHANNELS 6 Xposition Yposition Zposition Zrotation Xrotation Yrotation
                    End Site
                    {
                      OFFSET 2.006 -0.000 0.000
                    }
                  }
                }
              }
              JOINT LeftHandRing1
              {
                OFFSET 8.689 -0.126 -2.087
                CHANNELS 6 Xposition Yposition Zposition Zrotation Xrotation Yrotation
                JOINT LeftHandRing2
                {
                  OFFSET 4.538 0.000 0.000
                  CHANNELS 6 Xposition Yposition Zposition Zrotation Xrotation Yrotation
                  JOINT LeftHandRing3
                  {
                    OFFSET 2.305 -0.000 -0.000
                    CHANNELS 6 Xposition Yposition Zposition Zrotation Xrotation Yrotation
                    End Site
                    {
                      OFFSET 1.923 0.000 0.000
                    }
                  }
                }
              }
              JOINT LeftHandPinky1
              {
                OFFSET 8.391 -0.817 -3.758
                CHANNELS 6 Xposition Yposition Zposition Zrotation Xrotation Yrotation
                JOINT LeftHandPinky2
                {
                  OFFSET 3.044 0.000 0.000
                  CHANNELS 6 Xposition Yposition Zposition Zrotation Xrotation Yrotation
                  JOINT LeftHandPinky3
                  {
                    OFFSET 1.975 -0.000 -0.000
                    CHANNELS 6 Xposition Yposition Zposition Zrotation Xrotation Yrotation
                    End Site
                    {
                      OFFSET 1.667 -0.000 -0.000
                    }
                  }
                }
              }
            }
          }
        }
      }
      JOINT RightShoulder
      {
        OFFSET -1.724 -0.307 0.046
        CHANNELS 6 Xposition Yposition Zposition Zrotation Xrotation Yrotation
        JOINT RightArm
        {
          OFFSET -15.442 0.000 0.000
          CHANNELS 6 Xposition Yposition Zposition Zrotation Xrotation Yrotation
          JOINT RightForeArm
          {
            OFFSET -24.534 0.000 0.000
            CHANNELS 6 Xposition Yposition Zposition Zrotation Xrotation Yrotation
            JOINT RightHand
            {
              OFFSET -18.605 0.000 0.000
              CHANNELS 6 Xposition Yposition Zposition Zrotation Xrotation Yrotation
              JOINT RightHandThumb1
              {
                OFFSET -4.877 -1.044 3.608
                CHANNELS 6 Xposition Yposition Zposition Zrotation Xrotation Yrotation
                JOINT RightHandThumb2
                {
                  OFFSET -2.665 0.000 0.000
                  CHANNELS 6 Xposition Yposition Zposition Zrotation Xrotation Yrotation
                  JOINT RightHandThumb3
                  {
                    OFFSET -2.543 0.000 0.000
                    CHANNELS 6 Xposition Yposition Zposition Zrotation Xrotation Yrotation
                    End Site
                    {
                      OFFSET -2.667 0.000 0.000
                    }
                  }
                }
              }
              JOINT RightHandIndex1
              {
                OFFSET -9.232 -0.301 2.144
                CHANNELS 6 Xposition Yposition Zposition Zrotation Xrotation Yrotation
                JOINT RightHandIndex2
                {
                  OFFSET -4.225 0.000 0.000
                  CHANNELS 6 Xposition Yposition Zposition Zrotation Xrotation Yrotation
                  JOINT RightHandIndex3
                  {
                    OFFSET -2.654 -0.000 0.000
                    CHANNELS 6 Xposition Yposition Zposition Zrotation Xrotation Yrotation
                    End Site
                    {
                      OFFSET -1.958 0.000 -0.000
                    }
                  }
                }
              }
              JOINT RightHandMiddle1
              {
                OFFSET -8.920 -0.000 0.000
                CHANNELS 6 Xposition Yposition Zposition Zrotation Xrotation Yrotation
                JOINT RightHandMiddle2
                {
                  OFFSET -4.863 0.000 0.000
                  CHANNELS 6 Xposition Yposition Zposition Zrotation Xrotation Yrotation
                  JOINT RightHandMiddle3
                  {
                    OFFSET -2.765 0.000 -0.000
                    CHANNELS 6 Xposition Yposition Zposition Zrotation Xrotation Yrotation
                    End Site
                    {
                      OFFSET -2.006 -0.000 0.000
                    }
                  }
                }
              }
              JOINT RightHandRing1
              {
                OFFSET -8.689 -0.126 -2.087
                CHANNELS 6 Xposition Yposition Zposition Zrotation Xrotation Yrotation
                JOINT RightHandRing2
                {
                  OFFSET -4.538 0.000 -0.000
                  CHANNELS 6 Xposition Yposition Zposition Zrotation Xrotation Yrotation
                  JOINT RightHandRing3
                  {
                    OFFSET -2.305 0.000 -0.000
                    CHANNELS 6 Xposition Yposition Zposition Zrotation Xrotation Yrotation
                    End Site
                    {
                      OFFSET -1.923 0.000 0.000
                    }
                  }
                }
              }
              JOINT RightHandPinky1
              {
                OFFSET -8.391 -0.817 -3.758
                CHANNELS 6 Xposition Yposition Zposition Zrotation Xrotation Yrotation
                JOINT RightHandPinky2
                {
                  OFFSET -3.044 0.000 0.000
                  CHANNELS 6 Xposition Yposition Zposition Zrotation Xrotation Yrotation
                  JOINT RightHandPinky3
                  {
                    OFFSET -1.975 0.000 0.000
                    CHANNELS 6 Xposition Yposition Zposition Zrotation Xrotation Yrotation
                    End Site
                    {
                      OFFSET -1.667 0.000 -0.000
                    }
                  }
                }
              }
            }
          }
        }
      }
      JOINT Neck
      {
        OFFSET 0.000 0.616 0.000
        CHANNELS 6 Xposition Yposition Zposition Zrotation Xrotation Yrotation
        JOINT Head
        {
          OFFSET 0.000 5.807 0.000
          CHANNELS 6 Xposition Yposition Zposition Zrotation Xrotation Yrotation
          End Site
          {
            OFFSET 0.000 11.990 0.000
          }
        }
      }
    }
  }
}
MOTION
Frames:	4
Frame Time:	0.033333
51.67754 -30.91118 -413.59818 -2.33686 -1.91950 12.04961 6.08051 -0.26270 2.84522 14.71762 -16.20730 16.10714 -0.04309 -25.64419 -0.07022 -11.66990 31.08327 -12.98711 0.01791 -32.58491 -0.05429 -3.62449 23.20337 6.81394 -8.03401 0.50390 2.83996 -13.76757 -10.22086 -10.18553 -0.05741 -31.04573 0.07789 20.30210 23.42249 8.15946 0.05080 -31.71920 -0.20100 -0.00729 17.57472 0.12924 -0.00648 24.80716 -0.00263 0.16616 1.61537 3.09990 -0.00497 18.40589 -0.00650 0.69279 2.24748 2.81671 2.05215 -0.74657 0.08270 -19.68446 0.70383 -2.37974 19.58451 -0.06815 -0.03848 -32.76344 -2.81368 -6.00653 21.69642 -0.09293 -0.05860 19.88680 -10.65885 -15.35480 20.97287 -0.16729 -0.26081 72.62061 -35.70261 -17.25941 4.87701 -1.04400 3.60796 -24.66777 4.20648 -9.07716 2.66502 0.00001 0.00002 0.00000 0.00000 9.99720 2.54300 -0.00001 0.00000 0.00000 0.00000 15.00177 9.23201 -0.30099 2.14398 -20.00235 0.00000 -0.00000 4.22500 0.00000 -0.00002 -25.00157 0.00000 -0.00000 2.65400 0.00001 0.00000 -29.90702 2.49945 -4.33057 8.92003 0.00001 -0.00005 -20.00235 0.00000 -0.00000 4.86299 -0.00002 -0.00002 -25.00157 0.00000 -0.00000 2.76499 0.00001 0.00000 -29.90702 2.49945 -4.33057 8.68903 -0.12600 -2.08702 -20.00235 0.00000 -0.00000 4.53802 0.00001 0.00002 -25.00157 0.00000 -0.00000 2.30500 -0.00001 -0.00005 -29.90702 2.49945 -4.33057 8.39101 -0.81700 -3.75803 -20.00235 0.00000 -0.00000 3.04399 0.00000 0.00000 -25.00157 0.00000 -0.00000 1.97501 -0.00001 -0.00002 -29.90702 2.49945 -4.33057 -1.64952 0.01509 0.09547 -0.55649 -0.13298 3.41369 -14.93434 -0.00036 -0.00117 67.78554 -8.99793 43.50079 -27.03852 -0.63216 1.59051 42.97796 -9.90132 56.08053 -10.45225 0.22265 0.63345 20.39732 -60.61790 10.68381 -4.87700 -1.04401 3.60804 24.66704 4.21023 9.07752 -2.66499 0.00000 0.00000 0.00000 0.00000 -9.99681 -2.54302 0.00000 0.00002 -0.00000 -0.00000 -15.00167 -9.23201 -0.30101 2.14403 20.00223 -0.00000 0.00000 -4.22502 0.00000 0.00000 25.00148 -0.00001 0.00000 -2.65399 -0.00002 0.00002 29.90701 2.49850 4.33050 -8.91999 -0.00001 0.00002 20.00223 -0.00000 0.00000 -4.86302 0.00000 0.00002 25.00148 -0.00001 0.00000 -2.76499 0.00000 -0.00002 29.90692 2.49921 4.33132 -8.68900 -0.12601 -2.08695 20.00223 -0.00000 0.00000 -4.53801 0.00001 -0.00002 25.00148 -0.00001 0.00000 -2.30501 0.00001 -0.00005 29.90692 2.49921 4.33132 -8.39100 -0.81701 -3.75795 20.00223 -0.00000 0.00000 -3.04402 0.00001 0.00000 25.00148 -0.00001 0.00000 -1.97501 0.00000 0.00000 29.90701 2.49850 4.33050 -0.00002 0.60678 0.00005 0.00002 -0.00018 -0.00001 0.00876 5.46243 -0.00490 -8.19078 20.78991 -9.70127 
51.83107 -30.59513 -413.60031 -2.37771 -2.03925 12.75068 5.98185 -0.28904 2.84077 13.77716 -14.14720 15.99615 -0.04534 -25.49334 -0.07024 -11.00542 28.24718 -13.24584 0.03111 -32.48417 -0.03778 -2.61130 21.99832 5.26414 -8.01159 0.52377 2.83424 -14.53043 -10.90236 -10.22721 -0.04635 -31.52888 0.10126 22.67033 25.31963 7.72851 0.09344 -32.81965 -0.21814 0.22349 16.90558 -0.29107 -0.00606 24.75568 -0.00280 0.21746 1.62222 3.31435 -0.00488 18.36293 -0.00618 0.75618 2.23741 3.03147 2.05679 -0.76555 0.10638 -20.24376 0.96779 -2.95145 19.69308 -0.05846 -0.02781 -32.34444 -3.35706 -6.04536 21.58374 -0.06851 -0.04473 21.53288 -9.62479 -18.44344 21.00928 -0.07077 -0.10371 82.47523 -36.62262 -10.24920 4.87701 -1.04400 3.60796 -24.66776 4.20649 -9.07716 2.66502 0.00001 0.00002 0.00000 0.00000 9.99721 2.54300 -0.00001 0.00000 0.00000 0.00000 15.00176 9.23201 -0.30099 2.14398 -20.00234 0.00000 -0.00000 4.22500 0.00000 -0.00002 -25.00157 0.00000 -0.00000 2.65400 0.00001 0.00000 -29.90702 2.49944 -4.33057 8.92003 0.00001 -0.00005 -20.00234 0.00000 -0.00000 4.86299 -0.00002 -0.00002 -25.00157 0.00000 -0.00000 2.76499 0.00001 0.00000 -29.90702 2.49944 -4.33057 8.68903 -0.12600 -2.08702 -20.00234 0.00000 -0.00000 4.53802 0.00001 0.00002 -25.00157 0.00000 -0.00000 2.30500 -0.00001 -0.00005 -29.90702 2.49944 -4.33057 8.39101 -0.81700 -3.75803 -20.00234 0.00000 -0.00000 3.04399 0.00000 0.00000 -25.00157 0.00000 -0.00000 1.97501 -0.00001 -0.00002 -29.90702 2.49944 -4.33057 -1.65343 0.01508 0.11742 -0.50219 -0.10951 4.12341 -15.00200 0.00253 0.00650 66.90236 -9.60478 42.43222 -25.82991 -0.41520 1.17333 47.39947 -11.09418 57.29667 -11.37373 -0.15523 0.53028 18.47426 -58.48294 15.50071 -4.87700 -1.04401 3.60804 24.66703 4.21021 9.07754 -2.66499 0.00000 0.00000 0.00000 0.00000 -9.99683 -2.54302 0.00000 0.00002 -0.00000 -0.00000 -15.00165 -9.23201 -0.30101 2.14403 20.00220 -0.00000 0.00000 -4.22502 0.00000 0.00000 25.00147 -0.00001 0.00000 -2.65399 -0.00002 0.00002 29.90700 2.49848 4.33051 -8.91999 -0.00001 0.00002 20.00220 -0.00000 0.00000 -4.86302 0.00000 0.00002 25.00147 -0.00001 0.00000 -2.76499 0.00000 -0.00002 29.90691 2.49919 4.33133 -8.68900 -0.12601 -2.08695 20.00220 -0.00000 0.00000 -4.53801 0.00001 -0.00002 25.00147 -0.00001 0.00000 -2.30501 0.00001 -0.00005 29.90691 2.49919 4.33133 -8.39100 -0.81701 -3.75795 20.00220 -0.00000 0.00000 -3.04402 0.00001 0.00000 25.00147 -0.00001 0.00000 -1.97501 0.00000 0.00000 29.90700 2.49848 4.33051 -0.00002 0.60467 0.00005 0.00002 -0.00018 -0.00001 0.01108 5.45549 -0.00410 -7.75313 21.12612 -10.21663 
52.09637 -30.07952 -413.68863 -2.83816 -2.19727 12.69129 5.93248 -0.28605 2.83472 13.15211 -11.94954 16.35700 -0.04395 -25.34960 -0.07004 -8.94773 26.22369 -14.05352 0.03581 -32.97123 -0.02957 -1.36334 28.75582 2.46443 -7.95725 0.50099 2.83092 -14.80505 -12.07037 -9.74977 -0.03916 -32.09945 0.11535 24.44403 26.98655 6.27966 0.10373 -33.60760 -0.17038 4.79591 22.11191 -9.87373 -0.00566 24.64664 -0.00297 0.04836 1.63211 3.66335 -0.00477 18.28180 -0.00588 0.67627 2.27510 3.41617 2.03458 -0.66799 0.12556 -18.24686 1.06364 -3.49603 19.12838 -0.08375 -0.01613 -33.04017 -2.53607 -6.59475 21.72548 -0.05115 -0.02604 21.21483 -7.88621 -18.38068 21.10813 -0.07354 -0.07773 96.49886 -41.69049 14.11102 4.87701 -1.04400 3.60796 -24.66775 4.20650 -9.07717 2.66502 0.00001 0.00002 0.00000 0.00000 9.99722 2.54300 -0.00001 0.00000 0.00000 0.00000 15.00175 9.23201 -0.30099 2.14398 -20.00233 0.00000 -0.00000 4.22500 0.00000 -0.00002 -25.00156 0.00000 -0.00000 2.65400 0.00001 0.00000 -29.90701 2.49943 -4.33058 8.92003 0.00001 -0.00005 -20.00233 0.00000 -0.00000 4.86299 -0.00002 -0.00002 -25.00156 0.00000 -0.00000 2.76499 0.00001 0.00000 -29.90701 2.49943 -4.33058 8.68903 -0.12600 -2.08702 -20.00233 0.00000 -0.00000 4.53802 0.00001 0.00002 -25.00156 0.00000 -0.00000 2.30500 -0.00001 -0.00005 -29.90701 2.49943 -4.33058 8.39101 -0.81700 -3.75803 -20.00233 0.00000 -0.00000 3.04399 0.00000 0.00000 -25.00156 0.00000 -0.00000 1.97501 -0.00001 -0.00002 -29.90701 2.49943 -4.33058 -1.71951 0.01433 0.13509 -0.22351 -0.05732 4.38886 -15.67436 0.02012 0.04034 64.55452 -9.54904 39.87209 -24.85998 -0.28594 0.98234 33.30612 -4.93308 60.63026 -12.37529 -0.12683 0.69625 160.25189 -68.83671 154.13589 -4.87700 -1.04401 3.60804 24.66702 4.21019 9.07756 -2.66499 0.00000 0.00000 0.00000 0.00000 -9.99684 -2.54302 0.00000 0.00002 -0.00000 -0.00000 -15.00163 -9.23201 -0.30101 2.14403 20.00218 -0.00000 0.00000 -4.22502 0.00000 0.00000 25.00145 -0.00001 0.00000 -2.65399 -0.00002 0.00002 29.90699 2.49845 4.33052 -8.91999 -0.00001 0.00002 20.00218 -0.00000 0.00000 -4.86302 0.00000 0.00002 25.00145 -0.00001 0.00000 -2.76499 0.00000 -0.00002 29.90689 2.49917 4.33135 -8.68900 -0.12601 -2.08695 20.00218 -0.00000 0.00000 -4.53801 0.00001 -0.00002 25.00145 -0.00001 0.00000 -2.30501 0.00001 -0.00005 29.90689 2.49917 4.33135 -8.39100 -0.81701 -3.75795 20.00218 -0.00000 0.00000 -3.04402 0.00001 0.00000 25.00145 -0.00001 0.00000 -1.97501 0.00000 0.00000 29.90699 2.49845 4.33052 -0.00002 0.60317 0.00005 0.00002 -0.00018 -0.00001 0.03552 5.43818 -0.00331 -3.39099 21.11473 -11.87821 
52.32696 -29.78497 -413.84183 -3.05960 -2.09726 14.22109 5.99900 -0.36343 2.70606 11.28594 -11.31756 14.10891 -0.03123 -25.31018 -0.10351 -8.47178 22.44490 -12.86436 0.06374 -32.76463 -0.04771 -0.87511 25.58894 1.80557 -8.06428 0.53105 2.71490 -15.45969 -13.02554 -10.99978 -0.02542 -32.32672 0.11552 25.55884 28.37324 4.45325 0.08962 -34.11469 -0.12339 7.91662 25.86426 -14.96351 -0.00530 24.64935 -0.00313 -0.05987 1.53647 3.11151 -0.00464 18.28725 -0.00557 0.87740 2.37309 2.89937 2.01786 -0.58852 0.13737 -16.36639 1.06903 -3.83093 18.77593 -0.07714 -0.00734 -34.17467 -2.97780 -7.79476 21.96255 -0.04192 -0.01587 26.46819 -5.53848 -20.94186 20.89408 -0.08891 0.16084 84.99619 -38.06879 15.46189 4.87701 -1.04400 3.60796 -24.66774 4.20650 -9.07718 2.66502 0.00001 0.00002 0.00000 0.00000 9.99722 2.54300 -0.00001 0.00000 0.00000 0.00000 15.00175 9.23201 -0.30099 2.14398 -20.00232 0.00000 -0.00000 4.22500 0.00000 -0.00002 -25.00156 0.00000 -0.00000 2.65400 0.00001 0.00000 -29.90701 2.49943 -4.33058 8.92003 0.00001 -0.00005 -20.00232 0.00000 -0.00000 4.86299 -0.00002 -0.00002 -25.00156 0.00000 -0.00000 2.76499 0.00001 0.00000 -29.90701 2.49943 -4.33058 8.68903 -0.12600 -2.08702 -20.00232 0.00000 -0.00000 4.53802 0.00001 0.00002 -25.00156 0.00000 -0.00000 2.30500 -0.00001 -0.00005 -29.90701 2.49943 -4.33058 8.39101 -0.81700 -3.75803 -20.00232 0.00000 -0.00000 3.04399 0.00000 0.00000 -25.00156 0.00000 -0.00000 1.97501 -0.00001 -0.00002 -29.90701 2.49943 -4.33058 -1.76062 0.01294 0.14447 -0.14753 -0.03733 4.55249 -16.05356 0.01962 0.04396 61.57018 -9.39417 37.90641 -24.16326 -0.19128 0.80535 15.48927 -1.16399 61.81573 -12.51689 0.04818 0.97311 176.28889 -16.44277 162.98566 -4.87700 -1.04401 3.60804 24.66700 4.21017 9.07758 -2.66499 0.00000 0.00000 0.00000 0.00000 -9.99685 -2.54302 0.00000 0.00002 -0.00000 -0.00000 -15.00161 -9.23201 -0.30101 2.14403 20.00216 -0.00000 0.00000 -4.22502 0.00000 0.00000 25.00144 -0.00001 0.00000 -2.65399 -0.00002 0.00002 29.90697 2.49843 4.33053 -8.91999 -0.00001 0.00002 20.00216 -0.00000 0.00000 -4.86302 0.00000 0.00002 25.00144 -0.00001 0.00000 -2.76499 0.00000 -0.00002 29.90688 2.49915 4.33137 -8.68900 -0.12601 -2.08695 20.00216 -0.00000 0.00000 -4.53801 0.00001 -0.00002 25.00144 -0.00001 0.00000 -2.30501 0.00001 -0.00005 29.90688 2.49915 4.33137 -8.39100 -0.81701 -3.75795 20.00216 -0.00000 0.00000 -3.04402 0.00001 0.00000 25.00144 -0.00001 0.00000 -1.97501 0.00000 0.00000 29.90697 2.49843 4.33053 -0.00002 0.60609 0.00005 0.00002 -0.00018 -0.00001 0.04029 5.47109 -0.00254 -0.56171 20.42877 -12.87902 
